<svg aria-hidden="true" style="position: absolute; width: 0; height: 0; overflow: hidden;" version="1.1" xmlns="http://www.w3.org/2000/svg" xmlns:xlink="http://www.w3.org/1999/xlink">
<defs>
<symbol id="icon-committee" viewBox="0 0 32 32">
<path d="M26.931 3.797c-2.301 0-4.166 1.864-4.166 4.166s1.864 4.166 4.166 4.166 4.166-1.864 4.166-4.166-1.864-4.166-4.166-4.166zM26.931 10.462c-1.38 0-2.499-1.119-2.499-2.499s1.119-2.499 2.499-2.499 2.499 1.119 2.499 2.499-1.12 2.499-2.499 2.499zM11.674 7.026c0 2.301 1.864 4.166 4.166 4.166s4.166-1.864 4.166-4.166-1.864-4.166-4.166-4.166-4.166 1.864-4.166 4.166zM18.339 7.026c0 1.38-1.119 2.499-2.499 2.499s-2.499-1.119-2.499-2.499 1.119-2.499 2.499-2.499 2.499 1.119 2.499 2.499zM4.802 11.972c2.301 0 4.166-1.864 4.166-4.166s-1.864-4.166-4.166-4.166-4.166 1.864-4.166 4.166 1.864 4.166 4.166 4.166zM4.802 5.308c1.38 0 2.499 1.119 2.499 2.499s-1.119 2.499-2.499 2.499-2.499-1.119-2.499-2.499 1.119-2.499 2.499-2.499zM5.843 13.638h-2.083c-4.19 0-3.757 4.348-3.74 8.626 0.002 0.458 0.375 0.833 0.833 0.833s0.821-0.375 0.833-0.833c0.123-4.735-0.289-6.907 2.074-6.96h2.082c1.26 0 2.291 1.119 2.291 2.499 0 0.458 0.375 0.833 0.833 0.833s0.833-0.375 0.833-0.833c-0.001-2.296-1.776-4.166-3.957-4.166zM22.048 17.804c0 0.458 0.375 0.833 0.833 0.833s0.833-0.375 0.833-0.833c0-1.38 1.031-2.499 2.291-2.499h2.082c2.363 0.052 1.912 2.224 2.035 6.96 0.012 0.458 0.375 0.833 0.833 0.833s0.831-0.375 0.833-0.833c0.017-4.278 0.489-8.626-3.701-8.626h-2.082c-2.182 0-3.957 1.869-3.957 4.166zM16.881 12.857h-2.082c-2.182 0-3.957 1.869-3.957 4.166 0 0.458 0.375 0.833 0.833 0.833s0.833-0.375 0.833-0.833c0-1.38 1.031-2.499 2.291-2.499h2.083c1.26 0 2.291 1.119 2.291 2.499 0 0.458 0.375 0.833 0.833 0.833s0.833-0.375 0.833-0.833c-0.001-2.296-1.776-4.166-3.958-4.166zM30.856 28.9c0.006 0.003 0.012 0.005 0.019 0.008 0.549 0.224 1.291-0.247 1.093-0.806-4.521-12.746-29.665-10.246-31.929-0.151-0.146 0.648 0.599 1.157 1.219 0.921 0.008-0.003 0.015-0.006 0.023-0.009 0.289-0.109 0.407-0.392 0.539-0.671 4.452-9.461 23.708-9.248 28.402-0.181 0.182 0.351 0.267 0.742 0.634 0.889z"></path>
</symbol>
<symbol id="icon-command-system" viewBox="0 0 32 32">
<path d="M24 20.823c-0.823 0-1.489 0.667-1.489 1.489s0.667 1.489 1.489 1.489 1.489-0.667 1.489-1.489c-0.001-0.822-0.667-1.488-1.489-1.489zM29.6 4.6h-11.2c-1.326 0-2.4 1.075-2.4 2.4v17.6c0 1.326 1.074 2.4 2.4 2.4h11.2c1.326 0 2.4-1.074 2.4-2.4v-17.6c0-1.325-1.074-2.4-2.4-2.4zM30.4 24.6c0 0.442-0.358 0.8-0.8 0.8h-11.2c-0.442 0-0.8-0.358-0.8-0.8v-17.6c0-0.442 0.358-0.8 0.8-0.8h11.2c0.442 0 0.8 0.358 0.8 0.8v17.6zM5.2 25.4c-0.221 0-0.4 0.179-0.4 0.4v0.8c0 0.221 0.179 0.4 0.4 0.4h10.021c-0.364-0.471-0.616-1.018-0.739-1.6h-9.281zM0 6.2v14.4c0 0.884 0.716 1.6 1.6 1.6h12.8v-1.6h-12.8v-14.4h12.881c0.123-0.582 0.376-1.129 0.739-1.6h-13.621c-0.884 0-1.6 0.716-1.6 1.6zM28.539 10.97h-8.871v-2.419h8.87v2.419zM28.539 14.61h-8.871v-2.419h8.87v2.419z"></path>
</symbol>
<symbol id="icon-ribbon" viewBox="0 0 28 32">
<path d="M27.469 25.481l-7.238-7.613 2.65-2.838c2.087-2.231 2.337-5.456 0.637-8.219l-2.469-4.006c-0.344-0.563-0.8-1.019-1.344-1.369-1.012-0.656-2.819-1.438-5.706-1.438-2.881 0-4.694 0.781-5.7 1.431-0.55 0.35-1 0.819-1.344 1.381l-2.638 4.281c-1.569 2.544-1.244 5.737 0.813 7.938l2.763 2.956-7.369 7.506c-0.931 1.006-0.506 2.425 0.319 2.95l4.181 3.219c1.031 0.669 2.112 0.225 2.619-0.313l6.356-6.813 6.356 6.813c0.975 1.044 2.231 0.563 2.688 0.269l4.050-3.125c1.019-0.669 1.231-2.087 0.375-3.012zM20.525 5.769l1.288 2.087c1.231 2 1.081 4.225-0.394 5.806l-2.569 2.75-3.425-3.6 3.25-3.519c1-0.969 1.544-2.313 1.85-3.525zM14.050 11.363l-2.819-2.963c1.669-0.5 3.888-0.5 5.556 0l-2.738 2.963zM9.387 3.112c0.781-0.513 2.219-1.113 4.613-1.113s3.831 0.606 4.619 1.113c0.119 0.075 0.188 0.2 0.288 0.294-0.063 0.856-0.281 2.206-0.844 3.331-1.163-0.481-2.512-0.737-4.063-0.737s-2.906 0.256-4.075 0.744c-0.606-1.213-0.781-2.688-0.831-3.413 0.094-0.081 0.188-0.156 0.294-0.219zM6.181 30.031l-4.206-3.156 7.281-7.425 3.381 3.625-6.456 6.956zM21.819 29.981l-15.231-16.319c-1.431-1.531-1.662-3.75-0.569-5.525l1.45-2.35c0.306 1.2 0.856 2.531 1.831 3.475l16.637 17.6-4.119 3.119z"></path>
</symbol>
<symbol id="icon-users-cog" viewBox="0 0 40 32">
<path d="M17.962 15.662c0.181-0.65 0.406-1.275 0.681-1.875-2.1-0.594-3.65-2.506-3.65-4.794 0-2.756 2.244-5 5-5 2.288 0 4.194 1.55 4.794 3.65 0.6-0.275 1.225-0.506 1.875-0.681-0.875-2.862-3.512-4.963-6.662-4.963-3.869 0-7 3.131-7 7 0 3.15 2.1 5.787 4.962 6.662zM6 14c2.762 0 5-2.238 5-5s-2.238-5-5-5-5 2.237-5 5 2.237 5 5 5zM6 6c1.656 0 3 1.344 3 3s-1.344 3-3 3-3-1.344-3-3 1.344-3 3-3zM9.819 16.806c-0.744-0.506-1.625-0.806-2.569-0.806h-2.5c-2.619 0-4.75 2.244-4.75 5 0 0.55 0.45 1 1 1s1-0.45 1-1c0-1.656 1.237-3 2.75-3h2.5c0.344 0 0.675 0.075 0.981 0.206 0.469-0.531 1.006-1 1.588-1.4zM11 28c-0.55 0-1-0.45-1-1v-2.8c0-1.038 0.306-2.044 0.881-2.9 0.863-1.281 2.4-2.050 4.106-2.050 0.894 0 1.175 0.15 2.544 0.45-0.012-0.238-0.087-0.837 0.038-2.038-1.019-0.269-1.65-0.413-2.581-0.413-2.269 0-4.475 1.012-5.769 2.931-0.775 1.15-1.225 2.531-1.225 4.019v2.8c0 1.656 1.344 3 3 3h13.062c-1-0.538-1.913-1.219-2.719-2h-10.338zM30 14.969c-2.225 0-4.031 1.813-4.031 4.031s1.806 4.031 4.031 4.031 4.031-1.813 4.031-4.031-1.806-4.031-4.031-4.031zM30 21.031c-1.119 0-2.031-0.913-2.031-2.031s0.913-2.031 2.031-2.031 2.031 0.913 2.031 2.031-0.913 2.031-2.031 2.031zM39.269 20.394l-1.031-0.594c0.050-0.531 0.050-1.069 0-1.6l1.038-0.594c0.594-0.344 0.862-1.044 0.656-1.688-0.45-1.463-1.244-2.838-2.294-3.969-0.462-0.506-1.206-0.619-1.8-0.275l-1.031 0.594c-0.438-0.313-0.9-0.581-1.388-0.8v-1.188c0-0.688-0.469-1.269-1.138-1.419-1.494-0.338-3.081-0.338-4.581 0-0.669 0.15-1.137 0.738-1.137 1.419v1.188c-0.488 0.219-0.956 0.488-1.387 0.8l-1.031-0.594c-0.594-0.344-1.331-0.231-1.794 0.275-1.050 1.131-1.837 2.506-2.294 3.963-0.206 0.65 0.075 1.362 0.663 1.7l1.031 0.594c-0.050 0.531-0.050 1.069 0 1.6l-1.038 0.594c-0.581 0.337-0.863 1.056-0.656 1.694 0.456 1.462 1.244 2.837 2.294 3.969 0.462 0.5 1.2 0.613 1.8 0.275l1.031-0.594c0.438 0.313 0.9 0.581 1.387 0.8v1.188c0 0.688 0.469 1.269 1.137 1.419 0.75 0.169 1.519 0.25 2.288 0.25s1.544-0.081 2.287-0.25c0.669-0.15 1.138-0.738 1.138-1.419v-1.188c0.487-0.219 0.95-0.488 1.388-0.8l1.031 0.594c0.587 0.337 1.331 0.225 1.794-0.275 1.050-1.131 1.837-2.506 2.294-3.962 0.212-0.65-0.069-1.369-0.656-1.706zM36.044 20.844l1.837 1.063c-0.331 0.894-0.813 1.738-1.425 2.469l-1.837-1.063c-1.337 1.144-1.531 1.256-3.194 1.844v2.125c-0.944 0.163-1.913 0.163-2.85 0v-2.125c-1.681-0.594-1.887-0.731-3.194-1.844l-1.837 1.063c-0.613-0.738-1.1-1.575-1.425-2.469l1.837-1.063c-0.306-1.675-0.325-1.913 0-3.688l-1.837-1.063c0.325-0.894 0.813-1.731 1.425-2.469l1.837 1.063c1.337-1.144 1.531-1.256 3.194-1.844v-2.125c0.944-0.156 1.919-0.156 2.85 0v2.125c1.675 0.594 1.888 0.725 3.194 1.844l1.837-1.063c0.612 0.738 1.1 1.575 1.425 2.469l-1.837 1.063c0.306 1.675 0.325 1.913 0 3.688z"></path>
</symbol>
<symbol id="icon-users" viewBox="0 0 40 32">
<path d="M34 14c2.763 0 5-2.238 5-5s-2.237-5-5-5-5 2.237-5 5 2.238 5 5 5zM34 6c1.656 0 3 1.344 3 3s-1.344 3-3 3-3-1.344-3-3 1.344-3 3-3zM20 16c3.869 0 7-3.131 7-7s-3.131-7-7-7-7 3.131-7 7 3.131 7 7 7zM20 4c2.756 0 5 2.244 5 5s-2.244 5-5 5-5-2.244-5-5 2.244-5 5-5zM35.25 16h-2.5c-0.95 0-1.831 0.3-2.569 0.806 0.587 0.4 1.119 0.869 1.587 1.4 0.306-0.131 0.638-0.206 0.981-0.206h2.5c1.513 0 2.75 1.344 2.75 3 0 0.55 0.45 1 1 1s1-0.45 1-1c0-2.756-2.131-5-4.75-5zM6 14c2.762 0 5-2.238 5-5s-2.238-5-5-5-5 2.237-5 5 2.237 5 5 5zM6 6c1.656 0 3 1.344 3 3s-1.344 3-3 3-3-1.344-3-3 1.344-3 3-3zM25.006 17.25c-2.087 0-2.606 0.75-5.006 0.75s-2.919-0.75-5.006-0.75c-2.269 0-4.475 1.012-5.769 2.931-0.775 1.15-1.225 2.531-1.225 4.019v2.8c0 1.656 1.344 3 3 3h18c1.656 0 3-1.344 3-3v-2.8c0-1.488-0.45-2.869-1.225-4.019-1.294-1.919-3.5-2.931-5.769-2.931zM30 27c0 0.55-0.45 1-1 1h-18c-0.55 0-1-0.45-1-1v-2.8c0-1.038 0.306-2.044 0.881-2.9 0.863-1.281 2.4-2.050 4.106-2.050 1.712 0 2.325 0.75 5.012 0.75s3.3-0.75 5.006-0.75c1.706 0 3.244 0.769 4.106 2.050 0.575 0.856 0.881 1.863 0.881 2.9v2.8zM9.819 16.806c-0.744-0.506-1.625-0.806-2.569-0.806h-2.5c-2.619 0-4.75 2.244-4.75 5 0 0.55 0.45 1 1 1s1-0.45 1-1c0-1.656 1.237-3 2.75-3h2.5c0.344 0 0.675 0.075 0.981 0.206 0.469-0.531 1.006-1 1.588-1.4z"></path>
</symbol>
<symbol id="icon-ballot-check" viewBox="0 0 28 32">
<path d="M7 27h2c1.106 0 2-0.9 2-2v-2c0-1.1-0.894-2-2-2h-2c-1.106 0-2 0.9-2 2v2c0 1.1 0.894 2 2 2zM7 23h2v2h-2v-2zM7 11h2c1.106 0 2-0.9 2-2v-2c0-1.1-0.894-2-2-2h-2c-1.106 0-2 0.9-2 2v2c0 1.1 0.894 2 2 2zM7 7h2v2h-2v-2zM26 0h-24c-1.106 0-2 0.9-2 2v28c0 1.1 0.894 2 2 2h24c1.106 0 2-0.9 2-2v-28c0-1.1-0.894-2-2-2zM26 30h-24v-28h24v28zM13.5 9h8c0.275 0 0.5-0.225 0.5-0.5v-1c0-0.275-0.225-0.5-0.5-0.5h-8c-0.275 0-0.5 0.225-0.5 0.5v1c0 0.275 0.225 0.5 0.5 0.5zM13.5 17h8c0.275 0 0.5-0.225 0.5-0.5v-1c0-0.275-0.225-0.5-0.5-0.5h-8c-0.275 0-0.5 0.225-0.5 0.5v1c0 0.275 0.225 0.5 0.5 0.5zM13.5 25h8c0.275 0 0.5-0.225 0.5-0.5v-1c0-0.275-0.225-0.5-0.5-0.5h-8c-0.275 0-0.5 0.225-0.5 0.5v1c0 0.275 0.225 0.5 0.5 0.5zM7.412 17.9c0.131 0.131 0.344 0.131 0.475 0l4.012-3.975c0.131-0.131 0.131-0.344 0-0.475l-0.787-0.794c-0.131-0.131-0.344-0.131-0.475 0l-2.975 2.95-1.287-1.306c-0.131-0.131-0.344-0.131-0.475 0l-0.794 0.787c-0.131 0.131-0.131 0.344 0 0.475l2.306 2.338z"></path>
</symbol>
<symbol id="icon-broadcast-tower" viewBox="0 0 36 32">
<path d="M2.534 0c-0.388 0-0.748 0.221-0.909 0.573-1.035 2.266-1.626 4.776-1.626 7.427s0.591 5.161 1.626 7.427c0.161 0.352 0.522 0.573 0.909 0.573 0.731 0 1.2-0.755 0.896-1.42-0.914-2.008-1.431-4.233-1.431-6.58s0.516-4.572 1.431-6.58c0.303-0.665-0.165-1.42-0.897-1.42zM20.402 11.178c0.964-0.731 1.598-1.877 1.598-3.178 0-2.206-1.795-4-4-4s-4 1.794-4 4c0 1.308 0.639 2.459 1.612 3.189l-8.571 19.712c-0.11 0.253 0.006 0.548 0.259 0.658l0.919 0.399c0.253 0.11 0.547-0.006 0.658-0.259l4.217-9.699h9.831l4.217 9.699c0.11 0.253 0.404 0.369 0.657 0.259l0.919-0.399c0.178-0.079 0.301-0.255 0.301-0.459 0-0.072-0.015-0.141-0.043-0.203l0.001 0.003-8.576-19.724zM18 6c1.104 0 2 0.896 2 2s-0.896 2-2 2-2-0.896-2-2 0.896-2 2-2zM13.964 20l3.502-8.054c0.176 0.024 0.351 0.054 0.534 0.054 0.189 0 0.371-0.031 0.554-0.056l3.503 8.056h-8.092zM7.437 12c0.669 0 1.131-0.64 0.947-1.283-0.248-0.864-0.384-1.774-0.384-2.717s0.136-1.853 0.384-2.717c0.184-0.643-0.278-1.283-0.947-1.283h-0.009c-0.433 0-0.83 0.276-0.951 0.692-0.306 1.051-0.477 2.159-0.477 3.308s0.171 2.257 0.477 3.308c0.121 0.416 0.518 0.692 0.951 0.692h0.009zM28.573 4h-0.009c-0.669 0-1.131 0.64-0.947 1.283 0.248 0.864 0.384 1.774 0.384 2.717s-0.136 1.853-0.384 2.717c-0.184 0.643 0.278 1.283 0.947 1.283h0.009c0.434 0 0.83-0.276 0.951-0.692 0.306-1.051 0.476-2.159 0.476-3.308s-0.171-2.257-0.476-3.308c-0.121-0.416-0.518-0.692-0.951-0.692zM34.374 0.573c-0.161-0.352-0.521-0.573-0.909-0.573-0.731 0-1.199 0.755-0.896 1.42 0.914 2.008 1.431 4.233 1.431 6.58s-0.516 4.572-1.431 6.58c-0.303 0.666 0.165 1.42 0.896 1.42 0.388 0 0.748-0.221 0.909-0.573 1.036-2.266 1.626-4.777 1.626-7.427s-0.59-5.161-1.626-7.427z"></path>
</symbol>
<symbol id="icon-clipboard-list-check" viewBox="0 0 24 32">
<path d="M21 4h-5.537c0.025-0.163 0.037-0.331 0.037-0.5 0-1.931-1.569-3.5-3.5-3.5s-3.5 1.569-3.5 3.5c0 0.169 0.012 0.337 0.037 0.5h-5.537c-1.656 0-3 1.344-3 3v22c0 1.656 1.344 3 3 3h18c1.656 0 3-1.344 3-3v-22c0-1.656-1.344-3-3-3zM12 2c0.831 0 1.5 0.669 1.5 1.5s-0.669 1.5-1.5 1.5-1.5-0.669-1.5-1.5 0.669-1.5 1.5-1.5zM22 29c0 0.55-0.45 1-1 1h-18c-0.55 0-1-0.45-1-1v-22c0-0.55 0.45-1 1-1h3v1.25c0 0.412 0.338 0.75 0.75 0.75h10.5c0.413 0 0.75-0.338 0.75-0.75v-1.25h3c0.55 0 1 0.45 1 1v22zM7 20.5c-0.831 0-1.5 0.669-1.5 1.5s0.669 1.5 1.5 1.5 1.5-0.669 1.5-1.5-0.669-1.5-1.5-1.5zM17.5 21h-7c-0.275 0-0.5 0.225-0.5 0.5v1c0 0.275 0.225 0.5 0.5 0.5h7c0.275 0 0.5-0.225 0.5-0.5v-1c0-0.275-0.225-0.5-0.5-0.5zM7.888 16.9l4.013-3.975c0.131-0.131 0.131-0.344 0-0.475l-0.787-0.794c-0.131-0.131-0.344-0.131-0.475 0l-2.975 2.95-1.287-1.306c-0.131-0.131-0.344-0.131-0.475 0l-0.794 0.787c-0.131 0.131-0.131 0.344 0 0.475l2.319 2.338c0.119 0.131 0.331 0.131 0.463 0zM17.5 15h-4.85l-2.019 2h6.869c0.275 0 0.5-0.225 0.5-0.5v-1c0-0.275-0.225-0.5-0.5-0.5z"></path>
</symbol>
<symbol id="icon-clipboard-user" viewBox="0 0 24 32">
<path d="M21 4h-5.536c0.023-0.15 0.036-0.323 0.036-0.5v-0c0-1.933-1.567-3.5-3.5-3.5s-3.5 1.567-3.5 3.5v0c0 0.177 0.014 0.35 0.039 0.519l-0.002-0.019h-5.536c-1.657 0-3 1.343-3 3v0 22c0 1.657 1.343 3 3 3v0h18c1.657 0 3-1.343 3-3v0-22c0-1.657-1.343-3-3-3v0zM12 2c0.828 0 1.5 0.672 1.5 1.5s-0.672 1.5-1.5 1.5c-0.828 0-1.5-0.672-1.5-1.5v0c0-0.828 0.672-1.5 1.5-1.5v0zM22 29c0 0.552-0.448 1-1 1v0h-18c-0.552 0-1-0.448-1-1v0-22c0-0.552 0.448-1 1-1v0h3v1.25c0 0.414 0.336 0.75 0.75 0.75v0h10.5c0.414 0 0.75-0.336 0.75-0.75v0-1.25h3c0.552 0 1 0.448 1 1v0zM14.801 21c-1.344 0.149-1.412 0.5-2.801 0.5s-1.457-0.349-2.801-0.5c-2.867 0-5.199 2.063-5.199 4.599 0 1.588 1.188 2.401 2.401 2.401h11.199c1.213 0 2.401-0.813 2.401-2.401 0-2.537-2.332-4.599-5.199-4.599zM17.599 26h-11.199c-0.426 0-0.401-0.199-0.401-0.401 0-1.433 1.438-2.599 3.199-2.599 0.291 0 1.152 0.5 2.801 0.5s2.509-0.5 2.801-0.5c1.762 0 3.199 1.166 3.199 2.599 0 0.201 0.026 0.401-0.401 0.401zM12 20c2.761 0 5-2.239 5-5s-2.239-5-5-5c-2.761 0-5 2.239-5 5v0c0.003 2.76 2.24 4.997 5 5h0zM12 12c1.657 0 3 1.343 3 3s-1.343 3-3 3c-1.657 0-3-1.343-3-3v0c0.002-1.656 1.344-2.998 3-3h0z"></path>
</symbol>
<symbol id="icon-comment-exclamation" viewBox="0 0 32 32">
<path d="M28 0h-24c-2.206 0-4 1.794-4 4v18c0 2.206 1.794 4 4 4h6v5.25c0 0.444 0.363 0.75 0.75 0.75 0.15 0 0.306-0.044 0.444-0.15l7.806-5.85h9c2.206 0 4-1.794 4-4v-18c0-2.206-1.794-4-4-4zM30 22c0 1.1-0.9 2-2 2h-9.669l-0.531 0.4-5.8 4.35v-4.75h-8c-1.1 0-2-0.9-2-2v-18c0-1.1 0.9-2 2-2h24c1.1 0 2 0.9 2 2v18zM16 16.5c-0.831 0-1.5 0.669-1.5 1.5s0.669 1.5 1.5 1.5 1.5-0.669 1.5-1.5-0.669-1.5-1.5-1.5zM15.469 15h1.063c0.262 0 0.481-0.206 0.5-0.469l0.438-7c0.019-0.287-0.212-0.531-0.5-0.531h-1.938c-0.287 0-0.519 0.244-0.5 0.531l0.438 7c0.019 0.262 0.238 0.469 0.5 0.469z"></path>
</symbol>
<symbol id="icon-donate" viewBox="0 0 32 32">
<path d="M14.044 13.481l3.525 1.006c0.55 0.156 0.931 0.662 0.931 1.231 0 0.706-0.575 1.281-1.281 1.281h-2.306c-0.512 0-1.006-0.163-1.412-0.456-0.188-0.137-0.45-0.094-0.613 0.075l-0.713 0.712c-0.219 0.219-0.181 0.575 0.063 0.762 0.769 0.587 1.7 0.906 2.681 0.906h0.088v1.5c0 0.275 0.225 0.5 0.5 0.5h1c0.275 0 0.5-0.225 0.5-0.5v-1.5h0.087c1.425 0 2.769-0.85 3.231-2.2 0.631-1.85-0.456-3.738-2.194-4.238l-3.694-1.056c-0.55-0.156-0.931-0.662-0.931-1.231 0-0.706 0.575-1.281 1.281-1.281h2.306c0.512 0 1.006 0.162 1.413 0.456 0.188 0.137 0.45 0.094 0.613-0.075l0.712-0.713c0.219-0.219 0.181-0.575-0.063-0.763-0.769-0.588-1.7-0.906-2.681-0.906h-0.087v-1.494c0-0.275-0.225-0.5-0.5-0.5h-1c-0.275 0-0.5 0.225-0.5 0.5v1.5h-0.219c-1.912 0-3.444 1.644-3.262 3.594 0.125 1.381 1.188 2.506 2.525 2.888zM30 18h-2c0.644-1.538 1-3.225 1-5 0-7.181-5.819-13-13-13s-13 5.819-13 13c0 1.775 0.356 3.462 1 5h-2c-1.106 0-2 0.9-2 2v10c0 1.1 0.894 2 2 2h28c1.106 0 2-0.9 2-2v-10c0-1.1-0.894-2-2-2zM16 2c6.063 0 11 4.938 11 11s-4.938 11-11 11-11-4.938-11-11 4.938-11 11-11zM30 30h-28v-10h3.056c1.037 1.613 2.412 2.981 4.037 4h-2.594c-0.275 0-0.5 0.225-0.5 0.5v1c0 0.275 0.225 0.5 0.5 0.5h19c0.275 0 0.5-0.225 0.5-0.5v-1c0-0.275-0.225-0.5-0.5-0.5h-2.594c1.625-1.019 3-2.387 4.038-4h3.056v10z"></path>
</symbol>
<symbol id="icon-first-aid" viewBox="0 0 36 32">
<path d="M12.5 18h3.5v3.5c0 0.275 0.225 0.5 0.5 0.5h3c0.275 0 0.5-0.225 0.5-0.5v-3.5h3.5c0.275 0 0.5-0.225 0.5-0.5v-3c0-0.275-0.225-0.5-0.5-0.5h-3.5v-3.5c0-0.275-0.225-0.5-0.5-0.5h-3c-0.275 0-0.5 0.225-0.5 0.5v3.5h-3.5c-0.275 0-0.5 0.225-0.5 0.5v3c0 0.275 0.225 0.5 0.5 0.5zM33 2h-30c-1.656 0-3 1.344-3 3v22c0 1.656 1.344 3 3 3h30c1.656 0 3-1.344 3-3v-22c0-1.656-1.344-3-3-3zM6 28h-3c-0.55 0-1-0.45-1-1v-22c0-0.55 0.45-1 1-1h3v24zM28 28h-20v-24h20v24zM34 27c0 0.55-0.45 1-1 1h-3v-24h3c0.55 0 1 0.45 1 1v22z"></path>
</symbol>
<symbol id="icon-gavel" viewBox="0 0 32 32">
<path d="M31.306 11.66l-1.29-1.29c-0.807-0.807-2.026-0.896-2.921-0.341l-5.125-5.125c0.555-0.895 0.467-2.114-0.34-2.921l-1.29-1.29c-0.925-0.925-2.424-0.926-3.349 0l-7.096 7.095c-0.923 0.923-0.923 2.426 0 3.349l1.29 1.29c0.791 0.791 2.007 0.905 2.92 0.34l1.856 1.856-3.675 3.675-0.505-0.505c-1.058-1.058-2.78-1.058-3.839 0l-7.148 7.147c-1.058 1.058-1.058 2.78 0 3.839l2.426 2.426c1.058 1.058 2.78 1.058 3.839 0l7.147-7.148c1.058-1.058 1.058-2.78 0-3.839l-0.505-0.505 3.675-3.675 1.856 1.856c-0.564 0.913-0.451 2.129 0.34 2.92l1.29 1.29c0.924 0.924 2.426 0.924 3.349 0l7.095-7.096c0.925-0.926 0.926-2.424-0-3.349zM12.791 22.644l-7.147 7.147c-0.279 0.279-0.732 0.279-1.010 0v0l-2.424-2.424c-0.278-0.279-0.278-0.732 0-1.010l7.147-7.147c0.278-0.279 0.732-0.279 1.010-0l2.424 2.424c0.278 0.279 0.278 0.732 0 1.010zM29.892 13.595l-7.096 7.096c-0.067 0.067-0.159 0.108-0.261 0.108s-0.194-0.041-0.261-0.108l-1.29-1.29c-0.067-0.067-0.108-0.159-0.108-0.261s0.041-0.194 0.108-0.26v0l1.030-1.030-7.865-7.865-1.030 1.030c-0.067 0.067-0.159 0.108-0.261 0.108s-0.194-0.041-0.26-0.108v0l-1.29-1.29c-0.067-0.067-0.108-0.159-0.108-0.261s0.041-0.194 0.108-0.261v0l7.096-7.096c0.067-0.067 0.159-0.108 0.261-0.108s0.194 0.041 0.261 0.108l1.29 1.29c0.067 0.067 0.108 0.159 0.108 0.26s-0.041 0.194-0.108 0.261l-1.029 1.030 7.865 7.865 1.030-1.030c0.067-0.067 0.159-0.108 0.26-0.108s0.194 0.041 0.26 0.108l1.29 1.29c0.067 0.067 0.108 0.159 0.108 0.26s-0.041 0.194-0.108 0.261v0z"></path>
</symbol>
<symbol id="icon-hand-holding-heart" viewBox="0 0 36 32">
<path d="M34.894 20.85c-1.231-1.106-3.087-1.1-4.369-0.075l-3.85 3.081c-0.119 0.094-0.262 0.144-0.419 0.144h-2.6c0.288-0.6 0.406-1.294 0.3-2.019-0.25-1.744-1.85-2.981-3.613-2.981h-9.012c-1.3 0-2.563 0.419-3.6 1.2l-2.4 1.8h-4.831c-0.275 0-0.5 0.225-0.5 0.5v1c0 0.275 0.225 0.5 0.5 0.5h5.5l2.931-2.2c0.694-0.519 1.537-0.8 2.4-0.8h9.169c0.831 0 1.5 0.669 1.5 1.5s-0.669 1.5-1.5 1.5h-5.5c-0.55 0-1 0.45-1 1s0.45 1 1 1h11.262c0.606 0 1.194-0.206 1.669-0.581l3.85-3.075c0.481-0.381 1.25-0.475 1.775 0 0.631 0.569 0.581 1.531-0.056 2.038l-6.3 5.044c-0.475 0.381-1.063 0.581-1.669 0.581h-25.031c-0.275 0-0.5 0.225-0.5 0.5v1c0 0.275 0.225 0.5 0.5 0.5h25.031c1.063 0 2.087-0.363 2.913-1.025l6.306-5.044c0.763-0.613 1.219-1.525 1.25-2.5s-0.375-1.925-1.106-2.587zM17.206 15.656c0.438 0.462 1.15 0.462 1.594 0l6.806-7.131c1.975-2.075 1.863-5.506-0.35-7.419-2.206-1.913-5.087-1.063-6.556 0.481l-0.7 0.725-0.694-0.725c-1.438-1.506-4.331-2.413-6.556-0.481-2.206 1.912-2.325 5.35-0.35 7.419l6.806 7.131zM12.025 2.619c1.3-1.125 3.013-0.544 3.869 0.356l2.106 2.206 2.106-2.206c0.844-0.881 2.563-1.481 3.869-0.356 1.488 1.288 1.262 3.406 0.212 4.506l-6.188 6.488-6.188-6.487c-1.044-1.087-1.269-3.219 0.213-4.506z"></path>
</symbol>
<symbol id="icon-hand-holding-medical" viewBox="0 0 36 32">
<path d="M10 12h3v3c0 0.552 0.448 1 1 1v0h6c0.552 0 1-0.448 1-1v0-3h3c0.552 0 1-0.448 1-1v0-6c0-0.552-0.448-1-1-1v0h-3v-3c0-0.552-0.448-1-1-1v0h-6c-0.552 0-1 0.448-1 1v0 3h-3c-0.552 0-1 0.448-1 1v0 6c0 0.552 0.448 1 1 1v0zM11 6h4v-4h4v4h4v4h-4v4h-4v-4h-4zM34.892 20.844c-0.58-0.519-1.349-0.837-2.193-0.837-0.002 0-0.005 0-0.007 0h0c-0.822 0.001-1.576 0.288-2.168 0.768l0.006-0.005-3.849 3.081c-0.113 0.090-0.257 0.144-0.415 0.144-0.002 0-0.003 0-0.005-0h-2.6c0.214-0.439 0.34-0.954 0.34-1.499 0-0.183-0.014-0.363-0.041-0.539l0.003 0.020c-0.25-1.744-1.851-2.981-3.613-2.981h-9.018c-0.002 0-0.005 0-0.008 0-1.355 0-2.604 0.451-3.607 1.211l0.015-0.011-2.401 1.8h-4.831c-0.276 0-0.5 0.224-0.5 0.5v0 1c0 0.276 0.224 0.5 0.5 0.5v0h5.5l2.931-2.201c0.66-0.498 1.495-0.798 2.399-0.799h9.17c0.828 0 1.5 0.672 1.5 1.5s-0.672 1.5-1.5 1.5v0h-5.5c-0.552 0-1 0.448-1 1s0.448 1 1 1v0h11.261c0.633-0.001 1.215-0.22 1.675-0.585l-0.006 0.004 3.849-3.075c0.247-0.201 0.565-0.323 0.911-0.326h0.001c0.003-0 0.006-0 0.009-0 0.328 0 0.628 0.124 0.855 0.327l-0.001-0.001c0.276 0.245 0.449 0.6 0.449 0.995 0 0.421-0.196 0.796-0.501 1.039l-0.003 0.002-6.301 5.044c-0.45 0.362-1.028 0.581-1.658 0.581-0.004 0-0.008 0-0.012-0h-25.029c-0.276 0-0.5 0.224-0.5 0.5v0 1c0 0.276 0.224 0.5 0.5 0.5v0h25.030c0 0 0.001 0 0.002 0 1.106 0 2.121-0.386 2.919-1.031l-0.009 0.007 6.308-5.044c0.766-0.617 1.252-1.554 1.252-2.605 0-0.985-0.426-1.87-1.105-2.48l-0.003-0.003z"></path>
</symbol>
<symbol id="icon-hands-heart" viewBox="0 0 40 32">
<path d="M27.25 1.1c-0.9-0.781-1.913-1.1-2.9-1.1-1.425 0-2.788 0.669-3.663 1.581l-0.688 0.731-0.694-0.725c-0.856-0.9-2.225-1.587-3.669-1.587-0.981 0-1.988 0.319-2.894 1.1-2.206 1.913-2.325 5.35-0.35 7.419l6.806 7.131c0.438 0.463 1.15 0.463 1.594 0l6.806-7.131c1.975-2.069 1.863-5.506-0.35-7.419zM26.188 7.131l-6.188 6.487-6.188-6.487c-1.044-1.094-1.275-3.225 0.213-4.506 0.512-0.444 1.081-0.619 1.644-0.619 0.869 0 1.706 0.431 2.225 0.975l2.106 2.2 2.106-2.206c0.512-0.538 1.356-0.975 2.225-0.975 0.556 0 1.131 0.175 1.637 0.619 1.494 1.294 1.262 3.413 0.219 4.513zM13.75 15.55c-0.875-1.2-3.069-1.963-4.656-0.244-0.975 1.050-0.994 2.675-0.156 3.831l1.787 2.456c0.406 0.556-0.406 1.194-0.85 0.669l-3.875-4.581v-8.569c0-1.625-1.325-3.081-2.95-3.106-1.681-0.031-3.050 1.319-3.050 2.994v10.65c0 0.681 0.231 1.344 0.656 1.875l6.688 8.356c0.338 0.425 0.556 1.094 0.631 1.688 0.031 0.25 0.25 0.431 0.5 0.431h1c0.3 0 0.531-0.244 0.5-0.544-0.1-1-0.469-2.081-1.069-2.825l-6.688-8.356c-0.144-0.175-0.219-0.4-0.219-0.625v-10.65c0-1.313 2-1.35 2 0.044v9.356l4.037 4.844c2.306 2.762 6.050-0.169 4.425-2.65-0.012-0.019-0.025-0.031-0.031-0.050l-1.912-2.637c-0.294-0.406-0.262-1.044 0.219-1.394 0.438-0.319 1.069-0.238 1.4 0.219l2.65 3.65c0.794 1.056 1.219 2.337 1.219 3.625v7.5c0 0.275 0.225 0.5 0.5 0.5h1c0.275 0 0.5-0.225 0.5-0.5v-7.5c0-1.731-0.563-3.413-1.6-4.8l-2.656-3.656zM40 9c0-1.675-1.369-3.025-3.050-3-1.625 0.025-2.95 1.481-2.95 3.106v8.569l-3.875 4.581c-0.444 0.525-1.256-0.106-0.85-0.669l1.788-2.456c0.837-1.156 0.819-2.788-0.156-3.831-1.594-1.713-3.788-0.956-4.656 0.244l-2.65 3.65c-1.038 1.387-1.6 3.075-1.6 4.806v7.5c0 0.275 0.225 0.5 0.5 0.5h1c0.275 0 0.5-0.225 0.5-0.5v-7.5c0-1.288 0.425-2.569 1.219-3.625l2.65-3.65c0.331-0.456 0.956-0.544 1.4-0.219 0.488 0.35 0.519 0.988 0.219 1.394l-1.913 2.637c-0.012 0.019-0.025 0.031-0.031 0.050-1.631 2.481 2.119 5.419 4.425 2.65l4.037-4.844v-9.356c0-1.394 2-1.356 2-0.044v10.65c0 0.225-0.075 0.45-0.219 0.625l-6.688 8.356c-0.594 0.744-0.969 1.825-1.069 2.825-0.031 0.3 0.2 0.544 0.5 0.544h1c0.25 0 0.469-0.181 0.5-0.431 0.075-0.6 0.288-1.262 0.631-1.688l6.688-8.356c0.425-0.531 0.656-1.194 0.656-1.875l-0.006-10.644z"></path>
</symbol>
<symbol id="icon-hands-usd" viewBox="0 0 40 32">
<path d="M40 9c0-1.675-1.369-3.025-3.050-3-1.625 0.025-2.95 1.481-2.95 3.106v8.569l-3.875 4.581c-0.444 0.525-1.256-0.106-0.85-0.669l1.788-2.456c0.837-1.156 0.819-2.788-0.156-3.831-1.594-1.713-3.788-0.956-4.656 0.244l-2.65 3.65c-1.038 1.387-1.6 3.075-1.6 4.806v7.5c0 0.275 0.225 0.5 0.5 0.5h1c0.275 0 0.5-0.225 0.5-0.5v-7.5c0-1.288 0.425-2.569 1.219-3.625l2.65-3.65c0.331-0.456 0.956-0.544 1.4-0.219 0.488 0.35 0.519 0.988 0.219 1.394l-1.913 2.637c-0.012 0.019-0.025 0.031-0.031 0.050-1.631 2.481 2.119 5.419 4.425 2.65l4.037-4.844v-9.356c0-1.394 2-1.356 2-0.044v10.65c0 0.225-0.075 0.45-0.219 0.625l-6.688 8.356c-0.594 0.744-0.969 1.825-1.069 2.825-0.031 0.3 0.2 0.544 0.5 0.544h1c0.25 0 0.469-0.181 0.5-0.431 0.075-0.6 0.288-1.262 0.631-1.688l6.688-8.356c0.425-0.531 0.656-1.194 0.656-1.875l-0.006-10.644zM13.75 15.55c-0.875-1.2-3.069-1.963-4.656-0.244-0.975 1.050-0.994 2.675-0.156 3.831l1.787 2.456c0.406 0.556-0.406 1.194-0.85 0.669l-3.875-4.581v-8.569c0-1.625-1.325-3.081-2.95-3.106-1.681-0.031-3.050 1.319-3.050 2.994v10.65c0 0.681 0.231 1.344 0.656 1.875l6.688 8.356c0.338 0.425 0.556 1.094 0.631 1.688 0.031 0.25 0.25 0.431 0.5 0.431h1c0.3 0 0.531-0.244 0.5-0.544-0.1-1-0.469-2.081-1.069-2.825l-6.688-8.356c-0.144-0.175-0.219-0.4-0.219-0.625v-10.65c0-1.313 2-1.35 2 0.044v9.356l4.037 4.844c2.306 2.762 6.050-0.169 4.425-2.65-0.012-0.019-0.025-0.031-0.031-0.050l-1.912-2.637c-0.294-0.406-0.262-1.044 0.219-1.394 0.438-0.319 1.069-0.238 1.4 0.219l2.65 3.65c0.794 1.056 1.219 2.337 1.219 3.625v7.5c0 0.275 0.225 0.5 0.5 0.5h1c0.275 0 0.5-0.225 0.5-0.5v-7.5c0-1.731-0.563-3.413-1.6-4.8l-2.656-3.656zM24.319 11.8c0.631-1.85-0.456-3.738-2.194-4.237l-3.694-1.056c-0.55-0.156-0.931-0.662-0.931-1.231 0-0.706 0.575-1.281 1.281-1.281h2.306c0.512 0 1.006 0.162 1.413 0.456 0.188 0.138 0.45 0.094 0.613-0.075l0.712-0.712c0.219-0.219 0.181-0.575-0.063-0.762-0.762-0.581-1.694-0.9-2.675-0.9h-0.087v-1.5c0-0.275-0.225-0.5-0.5-0.5h-1c-0.275 0-0.5 0.225-0.5 0.5v1.5h-0.219c-1.913 0-3.444 1.644-3.262 3.594 0.131 1.388 1.194 2.506 2.531 2.888l3.525 1.006c0.55 0.156 0.931 0.662 0.931 1.231 0 0.706-0.575 1.281-1.281 1.281h-2.306c-0.512 0-1.006-0.162-1.413-0.456-0.188-0.137-0.45-0.094-0.613 0.075l-0.712 0.713c-0.219 0.219-0.181 0.575 0.063 0.762 0.769 0.588 1.7 0.906 2.681 0.906h0.087v1.5c0 0.275 0.225 0.5 0.5 0.5h1c0.275 0 0.5-0.225 0.5-0.5v-1.5h0.087c1.413 0 2.756-0.85 3.219-2.2z"></path>
</symbol>
<symbol id="icon-head-side-medical" viewBox="0 0 32 32">
<path d="M21 13.5v-3c0-0.276-0.224-0.5-0.5-0.5v0h-3.5v-3.5c0-0.276-0.224-0.5-0.5-0.5v0h-3c-0.276 0-0.5 0.224-0.5 0.5v0 3.5h-3.5c-0.276 0-0.5 0.224-0.5 0.5v0 3c0 0.276 0.224 0.5 0.5 0.5v0h3.5v3.5c0 0.276 0.224 0.5 0.5 0.5v0h3c0.276 0 0.5-0.224 0.5-0.5v0-3.5h3.5c0.276 0 0.5-0.224 0.5-0.5v0zM31.826 17.188c-1.309-2.945-3.027-9.483-4.567-11.672-2.382-3.354-6.252-5.516-10.627-5.516-0 0-0 0-0 0h-4.131c-6.533 0-12.242 5.005-12.491 11.534-0.006 0.139-0.009 0.303-0.009 0.467 0 3.543 1.541 6.726 3.989 8.915l0.011 0.010v10.574c0 0.276 0.224 0.5 0.5 0.5v0h1c0.276 0 0.5-0.224 0.5-0.5v0-11.466l-0.665-0.596c-2.051-1.836-3.335-4.491-3.335-7.446 0-0.134 0.003-0.267 0.008-0.4l-0.001 0.019c0.203-5.298 4.909-9.611 10.493-9.611h4.13c3.702 0 6.978 1.829 8.972 4.632l0.023 0.034c0.782 1.112 1.819 4.171 2.653 6.629 0.608 1.794 1.183 3.489 1.723 4.704h-4.001v6c0 1.105-0.895 2-2 2v0h-6v5.5c0 0.276 0.224 0.5 0.5 0.5v0h1c0.276 0 0.5-0.224 0.5-0.5v0-3.5h4c2.209 0 4-1.791 4-4v0-4h2c1.104-0.001 1.998-0.896 1.998-2 0-0.294-0.064-0.574-0.178-0.825l0.005 0.013z"></path>
</symbol>
<symbol id="icon-link" viewBox="0 0 32 32">
<path d="M18.822 24.669l-4.95 4.949c-3.174 3.175-8.315 3.177-11.49 0-3.175-3.174-3.176-8.315 0-11.49l4.949-4.95c0.071-0.071 0.143-0.14 0.216-0.208l0.005-0.005c0.472-0.438 1.237-0.125 1.263 0.518 0.012 0.3 0.037 0.6 0.076 0.899 0.030 0.232-0.047 0.465-0.212 0.631-1.030 1.029-4.696 4.695-4.706 4.705-2.296 2.297-2.296 6.012 0 8.309 2.297 2.296 6.012 2.296 8.309 0l4.973-4.973c2.269-2.292 2.259-6.004-0.023-8.286-0.513-0.513-1.099-0.911-1.724-1.194-0.285-0.129-0.464-0.417-0.446-0.729 0.021-0.348 0.084-0.673 0.184-0.981l-0.008 0.027c0.131-0.413 0.596-0.623 0.995-0.455 0.942 0.395 1.824 0.976 2.59 1.742 3.168 3.168 3.167 8.323 0 11.491zM13.178 18.822c0.765 0.765 1.648 1.346 2.59 1.742 0.399 0.168 0.864-0.043 0.995-0.455 0.093-0.281 0.156-0.606 0.176-0.943l0.001-0.011c0.018-0.313-0.161-0.6-0.446-0.729-0.626-0.283-1.211-0.681-1.724-1.194-2.282-2.282-2.292-5.994-0.023-8.286l4.973-4.973c2.297-2.296 6.011-2.296 8.309 0 2.296 2.297 2.296 6.011 0 8.309-0.010 0.010-3.676 3.676-4.706 4.705-0.166 0.166-0.242 0.399-0.212 0.631 0.035 0.254 0.062 0.564 0.075 0.879l0.001 0.020c0.026 0.643 0.791 0.956 1.263 0.518 0.078-0.073 0.15-0.142 0.221-0.213l4.949-4.95c3.176-3.175 3.175-8.316 0-11.49-3.175-3.176-8.316-3.175-11.49 0l-4.95 4.949c-3.167 3.168-3.168 8.323 0 11.491z"></path>
</symbol>
<symbol id="icon-people-carry" viewBox="0 0 40 32">
<path d="M39.744 27.775l-3.263-7.331c1.212-1.375 1.563-3.012 1.212-4.525l-1.15-5.013c-0.313-1.356-1.206-2.5-2.4-3.194 1.531-1.5 1.775-3.775 0.712-5.537-0.931-1.538-2.5-2.175-3.856-2.175-2.075 0-3.869 1.406-4.369 3.425-0.219 0.881-0.387 3.256 1.831 4.775-1.081 0.825-1.925 1.906-2.462 3.156v-1.356c0-0.55-0.45-1-1-1h-10c-0.55 0-1 0.45-1 1v1.363c-0.531-1.25-1.375-2.331-2.463-3.156 2.213-1.519 2.050-3.888 1.831-4.775-0.494-2.025-2.294-3.431-4.369-3.431-1.362 0-2.925 0.644-3.85 2.169-1.063 1.756-0.825 4.031 0.713 5.537-1.194 0.7-2.087 1.838-2.4 3.194l-1.15 5.012c-0.344 1.506-0.013 3.144 1.212 4.525l-3.269 7.337c-0.669 1.506 0.013 3.288 1.519 3.956 1.813 0.8 3.431-0.325 3.962-1.519l1.856-4.169 0.431 3.331c0.069 0.538 0.813 2.881 3.331 2.594 1.669-0.219 2.831-1.725 2.625-3.363l-0.656-5.094c-0.1-0.794-0.438-1.538-0.969-2.137l-2.575-2.913 0.262-1.056c0.287 0.375 0.637 0.712 1.044 1.006 0.106 0.075-0.169-0.1 2.981 1.9 0.137 0.387 0.5 0.675 0.931 0.675h10c0.438 0 0.8-0.281 0.931-0.675 3.15-2.006 2.881-1.825 2.981-1.9 0.406-0.3 0.756-0.637 1.044-1.006l0.262 1.056-2.569 2.913c-0.531 0.6-0.869 1.344-0.969 2.137l-0.656 5.094c-0.212 1.637 0.95 3.144 2.625 3.363 2.531 0.288 3.256-2.044 3.331-2.594l0.431-3.331 1.856 4.169c0.531 1.194 2.15 2.319 3.962 1.519 1.5-0.675 2.181-2.45 1.513-3.956zM28.575 3.9c0.275-1.137 1.3-1.9 2.425-1.9 1.525 0 2.837 1.425 2.431 3.094-0.288 1.144-1.306 1.906-2.431 1.906-1.525 0-2.837-1.431-2.425-3.1zM9 2c1.125 0 2.144 0.763 2.425 1.9 0.419 1.7-0.925 3.1-2.425 3.1-1.125 0-2.144-0.763-2.425-1.9-0.419-1.7 0.925-3.1 2.425-3.1zM3.913 29.4c-0.225 0.506-0.813 0.731-1.319 0.506s-0.731-0.813-0.506-1.319l2.887-6.494 1.456 1.65zM16.856 18.531c-0.313 0.488-0.938 0.587-1.381 0.306l-3.194-2.031c-0.569-0.413-0.938-0.919-1.131-1.506l-0.706-2.112c-0.144-0.431-0.375-0.8-0.581-1.075-0.169-0.225-0.519-0.15-0.588 0.119l-1.694 6.769 3.275 3.706c0.262 0.3 0.431 0.675 0.488 1.069l0.656 5.094c0.069 0.538-0.306 1.050-0.844 1.119-0.881 0.113-1.119-0.688-1.137-0.863l-0.575-4.488c-0.050-0.394-0.219-0.769-0.488-1.069l-4.013-4.544c-0.644-0.725-0.894-1.719-0.675-2.663l1.15-5.012c0.219-0.938 0.875-1.731 1.763-2.113 1.438-0.619 2.569 0.131 2.606 0.15 1.213 0.713 2.119 1.838 2.563 3.169l0.731 2.181c0.113 0.144 0.219 0.281 0.331 0.425l3.137 1.987c0.462 0.294 0.606 0.913 0.306 1.381zM21.181 18.994h-2.356c0.456-1.288-0.012-2.762-1.206-3.531l-1.619-1.019v-3.444h8v3.438l-1.613 1.025c-1.2 0.762-1.663 2.244-1.206 3.531zM31.056 23.563c-0.262 0.3-0.431 0.669-0.488 1.069l-0.575 4.488c-0.025 0.175-0.262 0.975-1.137 0.863-0.538-0.069-0.913-0.575-0.844-1.119l0.656-5.094c0.050-0.394 0.219-0.769 0.488-1.069l3.275-3.706-1.694-6.762c-0.069-0.275-0.419-0.344-0.587-0.119-0.206 0.275-0.438 0.644-0.581 1.075l-0.706 2.112c-0.194 0.588-0.563 1.094-1.119 1.506l-3.194 2.031c-0.438 0.275-1.069 0.188-1.381-0.306-0.294-0.469-0.156-1.081 0.306-1.381l3.137-1.988c0.113-0.144 0.219-0.281 0.331-0.425l0.731-2.181c0.444-1.331 1.35-2.456 2.563-3.169 0.031-0.019 1.169-0.769 2.606-0.15 0.888 0.381 1.55 1.175 1.763 2.112l1.15 5.012c0.219 0.944-0.038 1.931-0.675 2.663zM37.406 29.906c-0.506 0.225-1.094 0-1.319-0.506l-2.519-5.663 1.456-1.65 2.888 6.494c0.225 0.506 0 1.1-0.506 1.325z"></path>
</symbol>
<symbol id="icon-plus" viewBox="0 0 22 28">
<path d="M22 11.5v3c0 0.828-0.672 1.5-1.5 1.5h-6.5v6.5c0 0.828-0.672 1.5-1.5 1.5h-3c-0.828 0-1.5-0.672-1.5-1.5v-6.5h-6.5c-0.828 0-1.5-0.672-1.5-1.5v-3c0-0.828 0.672-1.5 1.5-1.5h6.5v-6.5c0-0.828 0.672-1.5 1.5-1.5h3c0.828 0 1.5 0.672 1.5 1.5v6.5h6.5c0.828 0 1.5 0.672 1.5 1.5z"></path>
</symbol>
<symbol id="icon-up" viewBox="0 0 28 28">
<path d="M26.297 20.797l-2.594 2.578c-0.391 0.391-1.016 0.391-1.406 0l-8.297-8.297-8.297 8.297c-0.391 0.391-1.016 0.391-1.406 0l-2.594-2.578c-0.391-0.391-0.391-1.031 0-1.422l11.594-11.578c0.391-0.391 1.016-0.391 1.406 0l11.594 11.578c0.391 0.391 0.391 1.031 0 1.422z"></path>
</symbol>
<symbol id="icon-mail" viewBox="0 0 28 28">
<path d="M28 11.094v12.406c0 1.375-1.125 2.5-2.5 2.5h-23c-1.375 0-2.5-1.125-2.5-2.5v-12.406c0.469 0.516 1 0.969 1.578 1.359 2.594 1.766 5.219 3.531 7.766 5.391 1.313 0.969 2.938 2.156 4.641 2.156h0.031c1.703 0 3.328-1.188 4.641-2.156 2.547-1.844 5.172-3.625 7.781-5.391 0.562-0.391 1.094-0.844 1.563-1.359zM28 6.5c0 1.75-1.297 3.328-2.672 4.281-2.438 1.687-4.891 3.375-7.313 5.078-1.016 0.703-2.734 2.141-4 2.141h-0.031c-1.266 0-2.984-1.437-4-2.141-2.422-1.703-4.875-3.391-7.297-5.078-1.109-0.75-2.688-2.516-2.688-3.938 0-1.531 0.828-2.844 2.5-2.844h23c1.359 0 2.5 1.125 2.5 2.5z"></path>
</symbol>
<symbol id="icon-phone" viewBox="0 0 32 32">
<path d="M22 20c-2 2-2 4-4 4s-4-2-6-4-4-4-4-6 2-2 4-4-4-8-6-8-6 6-6 6c0 4 4.109 12.109 8 16s12 8 16 8c0 0 6-4 6-6s-6-8-8-6z"></path>
</symbol>
<symbol id="icon-facebook" viewBox="0 0 32 32">
<path d="M19 6h5v-6h-5c-3.86 0-7 3.14-7 7v3h-4v6h4v16h6v-16h5l1-6h-6v-3c0-0.542 0.458-1 1-1z"></path>
</symbol>
<symbol id="icon-twitter" viewBox="0 0 32 32">
<path d="M32 7.075c-1.175 0.525-2.444 0.875-3.769 1.031 1.356-0.813 2.394-2.1 2.887-3.631-1.269 0.75-2.675 1.3-4.169 1.594-1.2-1.275-2.906-2.069-4.794-2.069-3.625 0-6.563 2.938-6.563 6.563 0 0.512 0.056 1.012 0.169 1.494-5.456-0.275-10.294-2.888-13.531-6.862-0.563 0.969-0.887 2.1-0.887 3.3 0 2.275 1.156 4.287 2.919 5.463-1.075-0.031-2.087-0.331-2.975-0.819 0 0.025 0 0.056 0 0.081 0 3.181 2.263 5.838 5.269 6.437-0.55 0.15-1.131 0.231-1.731 0.231-0.425 0-0.831-0.044-1.237-0.119 0.838 2.606 3.263 4.506 6.131 4.563-2.25 1.762-5.075 2.813-8.156 2.813-0.531 0-1.050-0.031-1.569-0.094 2.913 1.869 6.362 2.95 10.069 2.95 12.075 0 18.681-10.006 18.681-18.681 0-0.287-0.006-0.569-0.019-0.85 1.281-0.919 2.394-2.075 3.275-3.394z"></path>
</symbol>
<symbol id="icon-linkedin" viewBox="0 0 32 32">
<path d="M12 12h5.535v2.837h0.079c0.77-1.381 2.655-2.837 5.464-2.837 5.842 0 6.922 3.637 6.922 8.367v9.633h-5.769v-8.54c0-2.037-0.042-4.657-3.001-4.657-3.005 0-3.463 2.218-3.463 4.509v8.688h-5.767v-18z"></path>
<path d="M2 12h6v18h-6v-18z"></path>
<path d="M8 7c0 1.657-1.343 3-3 3s-3-1.343-3-3c0-1.657 1.343-3 3-3s3 1.343 3 3z"></path>
</symbol>
</defs>
</svg>
