<svg aria-hidden="true" style="position: absolute; width: 0; height: 0; overflow: hidden;" version="1.1" xmlns="http://www.w3.org/2000/svg" xmlns:xlink="http://www.w3.org/1999/xlink">
<defs>
<symbol id="icon-star" viewBox="0 0 36 32">
<path d="M33.006 10.719l-9.131-1.331-4.081-8.275c-0.731-1.475-2.85-1.494-3.587 0l-4.081 8.275-9.131 1.331c-1.637 0.238-2.294 2.256-1.106 3.412l6.606 6.438-1.563 9.094c-0.281 1.644 1.45 2.875 2.9 2.106l8.169-4.294 8.169 4.294c1.45 0.762 3.181-0.462 2.9-2.106l-1.563-9.094 6.606-6.438c1.188-1.156 0.531-3.175-1.106-3.412zM25.363 19.869l1.738 10.125-9.1-4.775-9.094 4.781 1.738-10.125-7.362-7.181 10.169-1.475 4.55-9.219 4.55 9.219 10.169 1.475-7.356 7.175z"></path>
</symbol>
<symbol id="icon-link" viewBox="0 0 32 32">
<path d="M18.822 24.669l-4.95 4.949c-3.174 3.175-8.315 3.177-11.49 0-3.175-3.174-3.176-8.315 0-11.49l4.949-4.95c0.071-0.071 0.143-0.14 0.216-0.208l0.005-0.005c0.472-0.438 1.237-0.125 1.263 0.518 0.012 0.3 0.037 0.6 0.076 0.899 0.030 0.232-0.047 0.465-0.212 0.631-1.030 1.029-4.696 4.695-4.706 4.705-2.296 2.297-2.296 6.012 0 8.309 2.297 2.296 6.012 2.296 8.309 0l4.973-4.973c2.269-2.292 2.259-6.004-0.023-8.286-0.513-0.513-1.099-0.911-1.724-1.194-0.285-0.129-0.464-0.417-0.446-0.729 0.021-0.348 0.084-0.673 0.184-0.981l-0.008 0.027c0.131-0.413 0.596-0.623 0.995-0.455 0.942 0.395 1.824 0.976 2.59 1.742 3.168 3.168 3.167 8.323 0 11.491zM13.178 18.822c0.765 0.765 1.648 1.346 2.59 1.742 0.399 0.168 0.864-0.043 0.995-0.455 0.093-0.281 0.156-0.606 0.176-0.943l0.001-0.011c0.018-0.313-0.161-0.6-0.446-0.729-0.626-0.283-1.211-0.681-1.724-1.194-2.282-2.282-2.292-5.994-0.023-8.286l4.973-4.973c2.297-2.296 6.011-2.296 8.309 0 2.296 2.297 2.296 6.011 0 8.309-0.010 0.010-3.676 3.676-4.706 4.705-0.166 0.166-0.242 0.399-0.212 0.631 0.035 0.254 0.062 0.564 0.075 0.879l0.001 0.020c0.026 0.643 0.791 0.956 1.263 0.518 0.078-0.073 0.15-0.142 0.221-0.213l4.949-4.95c3.176-3.175 3.175-8.316 0-11.49-3.175-3.176-8.316-3.175-11.49 0l-4.95 4.949c-3.167 3.168-3.168 8.323 0 11.491z"></path>
</symbol>
<symbol id="icon-plus" viewBox="0 0 22 28">
<path d="M22 11.5v3c0 0.828-0.672 1.5-1.5 1.5h-6.5v6.5c0 0.828-0.672 1.5-1.5 1.5h-3c-0.828 0-1.5-0.672-1.5-1.5v-6.5h-6.5c-0.828 0-1.5-0.672-1.5-1.5v-3c0-0.828 0.672-1.5 1.5-1.5h6.5v-6.5c0-0.828 0.672-1.5 1.5-1.5h3c0.828 0 1.5 0.672 1.5 1.5v6.5h6.5c0.828 0 1.5 0.672 1.5 1.5z"></path>
</symbol>
<symbol id="icon-mail" viewBox="0 0 28 28">
<path d="M28 11.094v12.406c0 1.375-1.125 2.5-2.5 2.5h-23c-1.375 0-2.5-1.125-2.5-2.5v-12.406c0.469 0.516 1 0.969 1.578 1.359 2.594 1.766 5.219 3.531 7.766 5.391 1.313 0.969 2.938 2.156 4.641 2.156h0.031c1.703 0 3.328-1.188 4.641-2.156 2.547-1.844 5.172-3.625 7.781-5.391 0.562-0.391 1.094-0.844 1.563-1.359zM28 6.5c0 1.75-1.297 3.328-2.672 4.281-2.438 1.687-4.891 3.375-7.313 5.078-1.016 0.703-2.734 2.141-4 2.141h-0.031c-1.266 0-2.984-1.437-4-2.141-2.422-1.703-4.875-3.391-7.297-5.078-1.109-0.75-2.688-2.516-2.688-3.938 0-1.531 0.828-2.844 2.5-2.844h23c1.359 0 2.5 1.125 2.5 2.5z"></path>
</symbol>
<symbol id="icon-phone" viewBox="0 0 32 32">
<path d="M22 20c-2 2-2 4-4 4s-4-2-6-4-4-4-4-6 2-2 4-4-4-8-6-8-6 6-6 6c0 4 4.109 12.109 8 16s12 8 16 8c0 0 6-4 6-6s-6-8-8-6z"></path>
</symbol>
<symbol id="icon-facebook" viewBox="0 0 32 32">
<path d="M19 6h5v-6h-5c-3.86 0-7 3.14-7 7v3h-4v6h4v16h6v-16h5l1-6h-6v-3c0-0.542 0.458-1 1-1z"></path>
</symbol>
<symbol id="icon-twitter" viewBox="0 0 32 32">
<path d="M32 7.075c-1.175 0.525-2.444 0.875-3.769 1.031 1.356-0.813 2.394-2.1 2.887-3.631-1.269 0.75-2.675 1.3-4.169 1.594-1.2-1.275-2.906-2.069-4.794-2.069-3.625 0-6.563 2.938-6.563 6.563 0 0.512 0.056 1.012 0.169 1.494-5.456-0.275-10.294-2.888-13.531-6.862-0.563 0.969-0.887 2.1-0.887 3.3 0 2.275 1.156 4.287 2.919 5.463-1.075-0.031-2.087-0.331-2.975-0.819 0 0.025 0 0.056 0 0.081 0 3.181 2.263 5.838 5.269 6.437-0.55 0.15-1.131 0.231-1.731 0.231-0.425 0-0.831-0.044-1.237-0.119 0.838 2.606 3.263 4.506 6.131 4.563-2.25 1.762-5.075 2.813-8.156 2.813-0.531 0-1.050-0.031-1.569-0.094 2.913 1.869 6.362 2.95 10.069 2.95 12.075 0 18.681-10.006 18.681-18.681 0-0.287-0.006-0.569-0.019-0.85 1.281-0.919 2.394-2.075 3.275-3.394z"></path>
</symbol>
<symbol id="icon-linkedin" viewBox="0 0 32 32">
<path d="M12 12h5.535v2.837h0.079c0.77-1.381 2.655-2.837 5.464-2.837 5.842 0 6.922 3.637 6.922 8.367v9.633h-5.769v-8.54c0-2.037-0.042-4.657-3.001-4.657-3.005 0-3.463 2.218-3.463 4.509v8.688h-5.767v-18z"></path>
<path d="M2 12h6v18h-6v-18z"></path>
<path d="M8 7c0 1.657-1.343 3-3 3s-3-1.343-3-3c0-1.657 1.343-3 3-3s3 1.343 3 3z"></path>
</symbol>
</defs>
</svg>
